<svg xmlns="http://www.w3.org/2000/svg" viewBox="0 0 105.19 73.16"><defs><style>.cls-1{fill:#231f20;stroke:#231f20;stroke-miterlimit:10;stroke-width:4px;}</style></defs><g id="Layer_2" data-name="Layer 2"><g id="Layer_1-2" data-name="Layer 1"><path class="cls-1" d="M39.08,2a13.29,13.29,0,0,1,5.39.88,10.37,10.37,0,0,1,6.84,5.89c2.23,4.62,4.21,9.36,6.29,14.05.8,1.81,1.63,3.62,2.39,5.44.26.6.67.62,1.2.62,4.68,0,9.37,0,14,0a13.68,13.68,0,0,1,9.39,3.62,11.59,11.59,0,0,1,2.8,4.36l5.43,12.68c2,4.68,4,9.36,6,14,.27.64,1.4,3.13,2.84,6.51.19.46.35.83.44,1.06h-1.37c-44.13-.12-66.18,0-67.82,0s-2-.26-2.63-1.79Q26.52,60,22.67,50.71C20.31,45,18,39.19,15.64,33.44c-3.37-8.23-4-9.58-6.32-15.29-2.83-7-5-12.61-6.4-16.14Z"/></g></g></svg>