<?xml version="1.0" encoding="UTF-8"?>
<svg id="Layer_2" data-name="Layer 2" xmlns="http://www.w3.org/2000/svg" viewBox="0 0 82.16 58.76">
  <defs>
    <style>
      .cls-1 {
        letter-spacing: -.04em;
      }

      .cls-2 {
        letter-spacing: -.04em;
      }

      .cls-3 {
        fill: #231f20;
        font-family: Montserrat-Black, Montserrat;
        font-size: 7px;
        font-weight: 800;
        opacity: .9;
      }
    </style>
  </defs>
  <g id="Layer_1-2" data-name="Layer 1">
    <text class="cls-3" transform="translate(2.13 5.95)"><tspan x="0" y="0">BAI</tspan><tspan class="cls-2" x="13.5" y="0">X</tspan><tspan x="18.56" y="0">AB</tspan><tspan x="3.48" y="8.5">AI</tspan><tspan class="cls-2" x="11.57" y="8.5">X</tspan><tspan x="16.63" y="8.5">ABAI</tspan><tspan class="cls-2" x="7" y="17">X</tspan><tspan x="12.05" y="17">ABAI</tspan><tspan class="cls-1" x="31.19" y="17">X</tspan><tspan x="36.25" y="17">A</tspan><tspan x="10.52" y="25.5">BAI</tspan><tspan class="cls-2" x="24.02" y="25.5">X</tspan><tspan x="29.07" y="25.5">ABAI</tspan><tspan class="cls-1" x="48.22" y="25.5">X</tspan><tspan x="53.27" y="25.5">AB</tspan><tspan x="14" y="34">AI</tspan><tspan class="cls-2" x="22.09" y="34">X</tspan><tspan x="27.15" y="34">ABAI</tspan><tspan class="cls-1" x="46.29" y="34">X</tspan><tspan x="51.35" y="34">ABA</tspan><tspan x="17.54" y="42.5">I</tspan><tspan class="cls-2" x="19.99" y="42.5">X</tspan><tspan x="25.04" y="42.5">AB</tspan><tspan class="cls-1" x="36.09" y="42.5">AX</tspan><tspan x="46.51" y="42.5">ABAIX</tspan><tspan x="21.02" y="51">ABAI</tspan><tspan class="cls-2" x="40.17" y="51">X</tspan><tspan x="45.22" y="51">ABAI</tspan><tspan class="cls-1" x="64.37" y="51">X</tspan><tspan x="69.42" y="51">A</tspan></text>
  </g>
</svg>