<?xml version="1.0" encoding="UTF-8"?>
<svg id="Layer_2" data-name="Layer 2" xmlns="http://www.w3.org/2000/svg" viewBox="0 0 80.94 56.35">
  <defs>
    <style>
      .cls-1 {
        fill: none;
        opacity: .9;
        stroke: #231f20;
        stroke-miterlimit: 10;
      }
    </style>
  </defs>
  <g id="Layer_1-2" data-name="Layer 1">
    <path class="cls-1" d="m29.68.51c1.03-.04,2.6.03,4.31.7.54.21,3.58.8,5.48,4.72,1.78,3.7,3.36,7.49,5.03,11.25.64,1.45,1.31,2.89,1.92,4.36.2.48.54.49.96.49,3.75,0,7.5.02,11.25-.01,2.91-.03,5.37,1.03,7.51,2.9,1.09.95,1.69,2.2,2.24,3.49,1.45,3.38,2.9,6.76,4.35,10.14,1.61,3.75,3.2,7.5,4.81,11.24.22.51,1.12,2.51,2.28,5.22.15.36.28.66.36.84-.2,0-.6,0-1.1,0-35.33-.1-52.98,0-54.29,0s-1.61-.21-2.11-1.43c-2.04-4.97-4.1-9.94-6.14-14.91-1.89-4.61-3.74-9.22-5.63-13.83-2.7-6.58-3.2-7.67-5.06-12.24C3.59,7.85,1.82,3.33.73.51h28.95Z"/>
  </g>
</svg>