<?xml version="1.0" encoding="UTF-8"?>
<svg id="Layer_2" data-name="Layer 2" xmlns="http://www.w3.org/2000/svg" viewBox="0 0 109.12 631.7">
  <defs>
    <style>
      .cls-1 {
        letter-spacing: -.04em;
      }

      .cls-2, .cls-3, .cls-4, .cls-5 {
        opacity: .9;
      }

      .cls-2, .cls-6 {
        stroke: #231f20;
      }

      .cls-2, .cls-6, .cls-4 {
        stroke-miterlimit: 10;
      }

      .cls-2, .cls-5 {
        fill: none;
      }

      .cls-7 {
        letter-spacing: -.04em;
      }

      .cls-3 {
        font-family: Montserrat-Black, Montserrat;
        font-size: 7px;
        font-weight: 800;
      }

      .cls-3, .cls-6 {
        fill: #231f20;
      }

      .cls-6 {
        stroke-width: 4px;
      }

      .cls-4 {
        fill: #bcbec0;
        stroke: #bcbec0;
      }
    </style>
  </defs>
  <g id="Layer_1-2" data-name="Layer 1">
    <text class="cls-3" transform="translate(16.36 256.23) scale(1 -1)"><tspan x="0" y="0">BAI</tspan><tspan class="cls-7" x="13.5" y="0">X</tspan><tspan x="18.56" y="0">AB</tspan><tspan x="3.48" y="8.5">AI</tspan><tspan class="cls-7" x="11.57" y="8.5">X</tspan><tspan x="16.63" y="8.5">ABAI</tspan><tspan class="cls-7" x="7" y="17">X</tspan><tspan x="12.05" y="17">ABAI</tspan><tspan class="cls-1" x="31.19" y="17">X</tspan><tspan x="36.25" y="17">A</tspan><tspan x="10.52" y="25.5">BAI</tspan><tspan class="cls-7" x="24.02" y="25.5">X</tspan><tspan x="29.07" y="25.5">ABAI</tspan><tspan class="cls-1" x="48.22" y="25.5">X</tspan><tspan x="53.27" y="25.5">AB</tspan><tspan x="14" y="34">AI</tspan><tspan class="cls-7" x="22.09" y="34">X</tspan><tspan x="27.15" y="34">ABAI</tspan><tspan class="cls-1" x="46.29" y="34">X</tspan><tspan x="51.35" y="34">ABA</tspan><tspan x="17.54" y="42.5">I</tspan><tspan class="cls-7" x="19.99" y="42.5">X</tspan><tspan x="25.04" y="42.5">AB</tspan><tspan class="cls-1" x="36.09" y="42.5">AX</tspan><tspan x="46.51" y="42.5">ABAIX</tspan><tspan x="21.02" y="51">ABAI</tspan><tspan class="cls-7" x="40.17" y="51">X</tspan><tspan x="45.22" y="51">ABAI</tspan><tspan class="cls-1" x="64.37" y="51">X</tspan><tspan x="69.42" y="51">A</tspan></text>
    <path class="cls-6" d="M40.86,276.38c1.29-.05,3.25,.04,5.39,.87,.68,.26,4.48,.99,6.84,5.9,2.23,4.62,4.2,9.36,6.28,14.05,.8,1.81,1.63,3.62,2.4,5.44,.25,.6,.67,.61,1.2,.61,4.68-.01,9.36,.03,14.05-.02,3.64-.03,6.71,1.29,9.39,3.62,1.36,1.18,2.12,2.75,2.8,4.36,1.81,4.23,3.62,8.45,5.43,12.67,2,4.68,4,9.36,6.01,14.04,.28,.64,1.4,3.14,2.84,6.52,.19,.45,.35,.82,.45,1.05-.25,0-.75,0-1.37,0-44.13-.12-66.18,0-67.82,0s-2.01-.26-2.63-1.79c-2.55-6.21-5.12-12.41-7.67-18.63-2.36-5.75-4.68-11.52-7.03-17.28-3.37-8.22-3.99-9.58-6.32-15.28-2.84-6.97-5.04-12.61-6.41-16.14H40.86Z"/>
    <path class="cls-4" d="M44.54,135.42c1.03-.04,2.6,.03,4.31,.7,.54,.21,3.58,.8,5.48,4.72,1.78,3.7,3.36,7.49,5.03,11.25,.64,1.45,1.31,2.89,1.92,4.36,.2,.48,.54,.49,.96,.49,3.75,0,7.5,.02,11.25-.01,2.91-.03,5.37,1.03,7.51,2.9,1.09,.95,1.69,2.2,2.24,3.49,1.45,3.38,2.9,6.76,4.35,10.14,1.61,3.75,3.2,7.5,4.81,11.24,.22,.51,1.12,2.51,2.28,5.22,.15,.36,.28,.66,.36,.84-.2,0-.6,0-1.1,0-35.33-.1-52.98,0-54.29,0s-1.61-.21-2.11-1.43c-2.04-4.97-4.1-9.94-6.14-14.91-1.89-4.61-3.74-9.22-5.63-13.83-2.7-6.58-3.2-7.67-5.06-12.24-2.27-5.58-4.04-10.1-5.13-12.92h28.95Z"/>
    <path class="cls-2" d="M43.54,123.29c1.03,.04,2.6-.03,4.31-.7,.54-.21,3.58-.8,5.48-4.72,1.78-3.7,3.36-7.49,5.03-11.25,.64-1.45,1.31-2.89,1.92-4.36,.2-.48,.54-.49,.96-.49,3.75,0,7.5-.02,11.25,.01,2.91,.03,5.37-1.03,7.51-2.9,1.09-.95,1.69-2.2,2.24-3.49,1.45-3.38,2.9-6.76,4.35-10.14,1.61-3.75,3.2-7.5,4.81-11.24,.22-.51,1.12-2.51,2.28-5.22,.15-.36,.28-.66,.36-.84-.2,0-.6,0-1.1,0-35.33,.1-52.98,0-54.29,0s-1.61,.21-2.11,1.43c-2.04,4.97-4.1,9.94-6.14,14.91-1.89,4.61-3.74,9.22-5.63,13.83-2.7,6.58-3.2,7.67-5.06,12.24-2.27,5.58-4.04,10.1-5.13,12.92h28.95Z"/>
    <path class="cls-4" d="M43.54,.51c1.03-.04,2.6,.03,4.31,.7,.54,.21,3.58,.8,5.48,4.72,1.78,3.7,3.36,7.49,5.03,11.25,.64,1.45,1.31,2.89,1.92,4.36,.2,.48,.54,.49,.96,.49,3.75,0,7.5,.02,11.25-.01,2.91-.03,5.37,1.03,7.51,2.9,1.09,.95,1.69,2.2,2.24,3.49,1.45,3.38,2.9,6.76,4.35,10.14,1.61,3.75,3.2,7.5,4.81,11.24,.22,.51,1.12,2.51,2.28,5.22,.15,.36,.28,.66,.36,.84-.2,0-.6,0-1.1,0-35.33-.1-52.98,0-54.29,0s-1.61-.21-2.11-1.43c-2.04-4.97-4.1-9.94-6.14-14.91-1.89-4.61-3.74-9.22-5.63-13.83-2.7-6.58-3.2-7.67-5.06-12.24C17.44,7.85,15.68,3.33,14.59,.51h28.95Z"/>
    <text class="cls-3" transform="translate(15.36 549.65) scale(1 -1)"><tspan x="0" y="0">BAI</tspan><tspan class="cls-7" x="13.5" y="0">X</tspan><tspan x="18.56" y="0">AB</tspan><tspan x="3.48" y="8.5">AI</tspan><tspan class="cls-7" x="11.57" y="8.5">X</tspan><tspan x="16.63" y="8.5">ABAI</tspan><tspan class="cls-7" x="7" y="17">X</tspan><tspan x="12.05" y="17">ABAI</tspan><tspan class="cls-1" x="31.19" y="17">X</tspan><tspan x="36.25" y="17">A</tspan><tspan x="10.52" y="25.5">BAI</tspan><tspan class="cls-7" x="24.02" y="25.5">X</tspan><tspan x="29.07" y="25.5">ABAI</tspan><tspan class="cls-1" x="48.22" y="25.5">X</tspan><tspan x="53.27" y="25.5">AB</tspan><tspan x="14" y="34">AI</tspan><tspan class="cls-7" x="22.09" y="34">X</tspan><tspan x="27.15" y="34">ABAI</tspan><tspan class="cls-1" x="46.29" y="34">X</tspan><tspan x="51.35" y="34">ABA</tspan><tspan x="17.54" y="42.5">I</tspan><tspan class="cls-7" x="19.99" y="42.5">X</tspan><tspan x="25.04" y="42.5">AB</tspan><tspan class="cls-1" x="36.09" y="42.5">AX</tspan><tspan x="46.51" y="42.5">ABAIX</tspan><tspan x="21.02" y="51">ABAI</tspan><tspan class="cls-7" x="40.17" y="51">X</tspan><tspan x="45.22" y="51">ABAI</tspan><tspan class="cls-1" x="64.37" y="51">X</tspan><tspan x="69.42" y="51">A</tspan></text>
    <path class="cls-2" d="M43.54,428.84c1.03-.04,2.6,.03,4.31,.7,.54,.21,3.58,.8,5.48,4.72,1.78,3.7,3.36,7.49,5.03,11.25,.64,1.45,1.31,2.89,1.92,4.36,.2,.48,.54,.49,.96,.49,3.75,0,7.5,.02,11.25-.01,2.91-.03,5.37,1.03,7.51,2.9,1.09,.95,1.69,2.2,2.24,3.49,1.45,3.38,2.9,6.76,4.35,10.14,1.61,3.75,3.2,7.5,4.81,11.24,.22,.51,1.12,2.51,2.28,5.22,.15,.36,.28,.66,.36,.84-.2,0-.6,0-1.1,0-35.33-.1-52.98,0-54.29,0s-1.61-.21-2.11-1.43c-2.04-4.97-4.1-9.94-6.14-14.91-1.89-4.61-3.74-9.22-5.63-13.83-2.7-6.58-3.2-7.67-5.06-12.24-2.27-5.58-4.04-10.1-5.13-12.92h28.95Z"/>
    <path class="cls-2" d="M42.54,416.71c1.03,.04,2.6-.03,4.31-.7,.54-.21,3.58-.8,5.48-4.72,1.78-3.7,3.36-7.49,5.03-11.25,.64-1.45,1.31-2.89,1.92-4.36,.2-.48,.54-.49,.96-.49,3.75,0,7.5-.02,11.25,.01,2.91,.03,5.37-1.03,7.51-2.9,1.09-.95,1.69-2.2,2.24-3.49,1.45-3.38,2.9-6.76,4.35-10.14,1.61-3.75,3.2-7.5,4.81-11.24,.22-.51,1.12-2.51,2.28-5.22,.15-.36,.28-.66,.36-.84-.2,0-.6,0-1.1,0-35.33,.1-52.98,0-54.29,0s-1.61,.21-2.11,1.43c-2.04,4.97-4.1,9.94-6.14,14.91-1.89,4.61-3.74,9.22-5.63,13.83-2.7,6.58-3.2,7.67-5.06,12.24-2.27,5.58-4.04,10.1-5.13,12.92h28.95Z"/>
    <path class="cls-5" d="M92.91,631.69c-11.76-.03-21.57-.04-29.46-.04-12.77,0-20.52,.03-23.48,.04h-1.33c-3.75,0-8.77-1.32-11.36-7.64-.98-2.4-1.97-4.8-2.96-7.19-1.06-2.57-2.12-5.14-3.18-7.72-.95-2.31-1.89-4.63-2.83-6.94-.93-2.3-1.86-4.59-2.8-6.88-1.35-3.29-2.14-5.19-2.83-6.85-.7-1.67-1.29-3.11-2.23-5.41-1.79-4.41-3.54-8.81-5.19-13.09l-5.26-13.6H43.37c.2,0,.41,0,.62,0,2.5,0,4.92,.43,7.21,1.28,6.28,2.03,9.51,6.44,11.13,9.8,1.34,2.78,2.56,5.57,3.73,8.27,.32,.73,.63,1.45,.95,2.17h1.09c1.43,0,2.85,0,4.28-.02h.21c5.12,0,9.95,1.85,13.98,5.36,2.57,2.25,3.91,4.85,4.87,7.1,.88,2.07,6.14,14.33,6.14,14.33,1,2.35,2.01,4.7,3.02,7.04l.28,.64c.42,.95,1.15,2.59,2.01,4.61l6.23,14.75h-15.13s-1.08,0-1.08,0Z"/>
    <path class="cls-2" d="M43.54,566.36c1.03-.04,2.6,.03,4.31,.7,.54,.21,3.58,.8,5.48,4.72,1.78,3.7,3.36,7.49,5.03,11.25,.64,1.45,1.31,2.89,1.92,4.36,.2,.48,.54,.49,.96,.49,3.75,0,7.5,.02,11.25-.01,2.91-.03,5.37,1.03,7.51,2.9,1.09,.95,1.69,2.2,2.24,3.49,1.45,3.38,2.9,6.76,4.35,10.14,1.61,3.75,3.2,7.5,4.81,11.24,.22,.51,1.12,2.51,2.28,5.22,.15,.36,.28,.66,.36,.84-.2,0-.6,0-1.1,0-35.33-.1-52.98,0-54.29,0s-1.61-.21-2.11-1.43c-2.04-4.97-4.1-9.94-6.14-14.91-1.89-4.61-3.74-9.22-5.63-13.83-2.7-6.58-3.2-7.67-5.06-12.24-2.27-5.58-4.04-10.1-5.13-12.92h28.95Z"/>
  </g>
</svg>